<?xml version="1.0" encoding="utf-8"?>
<!-- Generator: Adobe Illustrator 23.0.2, SVG Export Plug-In . SVG Version: 6.00 Build 0)  -->
<svg version="1.1" id="Capa_1" xmlns="http://www.w3.org/2000/svg" xmlns:xlink="http://www.w3.org/1999/xlink" x="0px" y="0px"
	 viewBox="0 0 512 512" style="enable-background:new 0 0 512 512;" xml:space="preserve">
<style type="text/css">
	.st0{fill:#BF0404;}
	.st1{fill:#F29F05;}
</style>
<g>
	<polygon class="st0" points="448,162.3 405.9,84.2 256,42 256,42 106.1,84.2 64,162.3 64,362 447.9,362 	"/>
	<rect x="163" y="176" class="st1" width="186" height="186"/>
	<path d="M482.1,174c-3.7,0-7.2-2-9-5.6l-47.7-96.1L256.1,20.4L86.7,72.3L39,168.4c-2.5,4.9-8.5,7-13.4,4.5c-4.9-2.5-7-8.5-4.5-13.4
		l49.6-100c1.2-2.5,3.4-4.3,6-5.1l176.3-54C254,0.1,255,0,256,0h0.1c1,0,2,0.1,2.9,0.4l176.3,54c2.6,0.8,4.8,2.7,6,5.1l49.6,100
		c2.5,4.9,0.4,10.9-4.5,13.4C485.1,173.7,483.6,174,482.1,174z"/>
	<path d="M256,512c-5.5,0-10-4.5-10-10v-0.1c0-5.5,4.5-10,10-10s10,4.5,10,10v0.1C266,507.5,261.5,512,256,512z"/>
	<path d="M256,479.5c-5.5,0-10-4.5-10-10v-74.4c0-5.5,4.5-10,10-10s10,4.5,10,10v74.4C266,475,261.5,479.5,256,479.5z"/>
	<path d="M320.9,214.1c-2.6,0-5.1-1-7.1-2.9c-3.9-3.9-3.9-10.2,0-14.1l0.1-0.1c3.9-3.9,10.2-3.9,14.1,0c3.9,3.9,3.9,10.2,0,14.1
		l-0.1,0.1C326.1,213.2,323.5,214.1,320.9,214.1z"/>
	<path d="M191.9,214.9c-2.6,0-5.1-1-7.1-2.9l-0.1-0.1c-3.9-3.9-3.9-10.2,0-14.1c3.9-3.9,10.2-3.9,14.1,0l0.1,0.1
		c3.9,3.9,3.9,10.2,0,14.1C197,213.9,194.5,214.9,191.9,214.9z"/>
	<path d="M10,512c-1.5,0-3.1-0.3-4.5-1.1c-4.9-2.5-6.9-8.5-4.4-13.4l54-106.9c2.5-4.9,8.5-6.9,13.4-4.4c4.9,2.5,6.9,8.5,4.4,13.4
		l-54,106.9C17.2,510,13.6,512,10,512z"/>
	<path d="M133,512c-0.8,0-1.6-0.1-2.5-0.3c-5.4-1.4-8.6-6.8-7.2-12.1l27-106.9c1.4-5.4,6.8-8.6,12.1-7.2c5.4,1.4,8.6,6.8,7.2,12.1
		l-27,106.9C141.6,509,137.5,512,133,512z"/>
	<path d="M502,512c-3.7,0-7.2-2-8.9-5.5l-54-106.9c-2.5-4.9-0.5-10.9,4.4-13.4c4.9-2.5,10.9-0.5,13.4,4.4l54,106.9
		c2.5,4.9,0.5,10.9-4.4,13.4C505.1,511.7,503.5,512,502,512z"/>
	<path d="M379,512c-4.5,0-8.5-3-9.7-7.6l-27-106.9c-1.4-5.4,1.9-10.8,7.2-12.1c5.4-1.4,10.8,1.9,12.1,7.2l27,106.9
		c1.4,5.4-1.9,10.8-7.2,12.1C380.6,511.9,379.8,512,379,512z"/>
	<path d="M456.8,157.5l-42.1-78.1c-1.3-2.4-3.5-4.1-6.1-4.9L258.8,32.4c-0.9-0.2-1.9-0.4-2.8-0.4s-1.8,0.1-2.7,0.4L103.4,74.6
		c-2.6,0.7-4.8,2.5-6.1,4.9l-42.1,78.1c-0.8,1.5-1.2,3.1-1.2,4.7V362c0,5.5,4.5,10,10,10h99h186h98.9c5.5,0,10-4.5,10-10l0.1-199.7
		C458,160.6,457.6,159,456.8,157.5z M187.2,352l68.8-68.8l68.8,68.8H187.2L187.2,352z M437.9,352H359V176c0-5.5-4.5-10-10-10h-64
		c-5.5,0-10,4.5-10,10s4.5,10,10,10h54v151.9L270.2,269l35-35c3.9-3.9,3.9-10.2,0-14.1c-3.9-3.9-10.2-3.9-14.1,0l-35,35l-34.2-34.2
		c-3.9-3.9-10.2-3.9-14.1,0c-3.9,3.9-3.9,10.2,0,14.1l34.2,34.2L173,337.9V186h54c5.5,0,10-4.5,10-10s-4.5-10-10-10h-64
		c-5.5,0-10,4.5-10,10v176H74V164.8l38.9-72.2L256,52.4l143.1,40.3l38.9,72.2L437.9,352z"/>
	<path d="M256,186L256,186c-5.5,0-10-4.5-10-10s4.5-10,10-10s10,4.5,10,10C266,181.5,261.5,186,256,186z"/>
	<rect x="227" y="87" class="st1" width="58" height="58"/>
	<path d="M285,155h-58c-5.5,0-10-4.5-10-10V87c0-5.5,4.5-10,10-10h58c5.5,0,10,4.5,10,10v58C295,150.5,290.5,155,285,155z M237,135
		h38V97h-38V135L237,135z"/>
</g>
</svg>
