<?xml version="1.0" encoding="utf-8"?>
<!-- Generator: Adobe Illustrator 23.0.2, SVG Export Plug-In . SVG Version: 6.00 Build 0)  -->
<svg version="1.1" id="Capa_1" xmlns="http://www.w3.org/2000/svg" xmlns:xlink="http://www.w3.org/1999/xlink" x="0px" y="0px"
	 viewBox="0 0 419.2 419.2" style="enable-background:new 0 0 419.2 419.2;" xml:space="preserve">
<style type="text/css">
	.st0{fill:#BF0404;}
</style>
<g>
	<g>
		<circle class="st0" cx="172.8" cy="125.3" r="26.2"/>
		<path class="st0" d="M378.4,229.9c-12.4-11.6-28-19.3-45.1-21.5V75.3c0-14.2-5.8-26.9-14.9-36.4C309,29.5,296.2,24,282.1,24h-211
			c-14.2,0-26.9,5.8-36.4,14.9c-9.5,9.5-14.9,22.2-14.9,36.4V243v15.6v33.8c0,14.2,5.8,26.9,14.9,36.4c9.5,9.5,22.2,14.9,36.4,14.9
			h204.1c13.5,10.9,30.2,17.8,48.7,17.8c21.5,0,40.7-8.7,54.6-22.6c13.8-13.8,22.6-33.1,22.6-54.6C401,263,392.3,243.7,378.4,229.9z
			 M39.1,75.3c0-8.7,3.6-16.7,9.5-22.2c5.8-5.8,13.8-9.5,22.6-9.5h211c8.7,0,16.7,3.6,22.6,9.5c5.8,5.8,9.5,13.8,9.5,22.6v113.5
			l-53.8-53.8c-3.6-3.6-9.8-4-13.8,0l-81.1,81.5l-54.9-55.3c-3.6-3.6-9.8-4-13.8,0l-57.5,58.2V75.3z M70.7,325.2v-0.7
			c-8.7,0-16.7-3.6-22.6-9.5c-5.5-5.8-9.1-13.8-9.1-22.6v-33.8v-11.3l64.4-64.7l54.9,54.9c3.6,3.6,9.8,3.6,13.8,0l81.1-81.5
			l53.1,53.5c-1.1,0.4-2.2,0.7-3.3,1.1c-1.5,0.4-2.9,0.7-4.7,1.5c-1.5,0.4-2.9,1.1-4.4,1.5c-1.1,0.4-1.8,0.7-2.9,1.5
			c-1.5,0.7-2.5,1.1-3.6,1.8c-1.8,1.1-3.6,2.2-5.5,3.3c-1.1,0.7-1.8,1.1-2.9,1.8c-0.7,0.4-1.1,0.7-1.8,1.1c-3.3,2.2-6.2,4.7-8.7,7.6
			c-13.8,13.8-22.6,33.1-22.6,54.6c0,5.5,0.7,10.5,1.8,16c0.4,1.5,0.7,2.5,1.1,4c1.1,3.6,2.2,7.3,3.6,10.9v0.4
			c1.5,2.9,2.9,6.2,4.7,8.7H70.7z M364.3,325.2c-10.5,10.5-24.7,16.7-40.7,16.7c-15.3,0-29.5-6.2-39.6-16c-1.5-1.5-2.9-3.3-4.4-4.7
			c-1.1-1.1-2.2-2.5-3.3-3.6c-1.5-1.8-2.5-4-3.6-6.2c-0.7-1.5-1.5-2.5-2.2-4c-0.7-1.8-1.5-4-1.8-6.2c-0.4-1.5-1.1-3.3-1.5-4.7
			c-0.7-3.6-1.1-7.6-1.1-11.6c0-16,6.5-30.2,16.7-40.7c10.2-10.5,24.7-16.7,40.7-16.7c16,0,30.2,6.5,40.7,16.7
			c10.5,10.5,16.7,24.7,16.7,40.7C381,300.4,374.4,314.6,364.3,325.2z"/>
		<path class="st0" d="M330.4,245.5c-0.7-0.7-1.8-1.5-3.3-2.2c-1.1-0.4-2.2-0.7-3.3-0.7c-0.4,0-0.4,0-0.4,0c-0.4,0-0.4,0-0.4,0
			c-1.1,0-2.2,0.4-3.3,0.7c-1.1,0.4-2.2,1.1-3.3,2.2l-22.6,22.6c-3.6,3.6-3.6,9.8,0,13.8c3.6,3.6,9.8,3.6,13.8,0l5.8-5.8v40
			c0,5.5,4.4,9.8,9.8,9.8c5.5,0,9.8-4.4,9.8-9.8v-40l5.8,5.8c3.6,3.6,9.8,3.6,13.8,0c3.6-3.6,3.6-9.8,0-13.8L330.4,245.5z"/>
	</g>
</g>
</svg>
